<?xml version="1.0" encoding="UTF-8"?>
<svg width="30px" height="26px" viewBox="0 0 30 26" version="1.1" xmlns="http://www.w3.org/2000/svg" xmlns:xlink="http://www.w3.org/1999/xlink">
    <!-- Generator: Sketch 49.2 (51160) - http://www.bohemiancoding.com/sketch -->
    <title>right-quotation-mark (1)</title>
    <desc>Created with Sketch.</desc>
    <defs>
        <linearGradient x1="50%" y1="0%" x2="50%" y2="98.6926481%" id="linearGradient-1">
            <stop stop-color="#FBB800" offset="0%"></stop>
            <stop stop-color="#FF8700" offset="100%"></stop>
        </linearGradient>
    </defs>
    <g id="Page-1" stroke="none" stroke-width="1" fill="none" fill-rule="evenodd">
        <g id="A4" transform="translate(-412.000000, -5198.000000)" fill="url(#linearGradient-1)" fill-rule="nonzero">
            <g id="Эксперты" transform="translate(198.000000, 4173.000000)">
                <g id="Екатерина" transform="translate(214.000000, 614.000000)">
                    <g id="Group-8" transform="translate(0.000000, 325.000000)">
                        <g id="right-quotation-mark-(1)" transform="translate(0.000000, 86.000000)">
                            <path d="M10.3647479,0.0344747899 L3.45491597,0.0344747899 C2.49510504,0.0344747899 1.67943277,0.37039916 1.00752101,1.04205882 C0.33592437,1.71384454 0,2.52951681 0,3.48939076 L0,10.3989706 C0,11.3587815 0.335735294,12.1743277 1.00752101,12.8459874 C1.67936975,13.517584 2.49529412,13.8536345 3.45491597,13.8536345 L7.48556723,13.8536345 C7.9652521,13.8536345 8.37321429,14.0216597 8.70913866,14.357458 C9.04506303,14.6930672 9.21296218,15.1011555 9.21296218,15.5812185 L9.21296218,16.1567017 C9.21296218,17.4283613 8.76302521,18.5136555 7.86340336,19.4135294 C6.96371849,20.3129622 5.87817227,20.7628361 4.60638655,20.7628361 L3.45491597,20.7628361 C3.14281513,20.7628361 2.8730042,20.8771008 2.64497899,21.1048739 C2.41714286,21.3326471 2.30313025,21.6026471 2.30313025,21.9145588 L2.30313025,24.2180672 C2.30313025,24.5294748 2.41714286,24.799979 2.64497899,25.0278151 C2.87319328,25.2555252 3.1427521,25.3698529 3.45491597,25.3698529 L4.60644958,25.3698529 C5.85415966,25.3698529 7.04476891,25.1265756 8.17846639,24.6409034 C9.31210084,24.1551681 10.2927101,23.4981933 11.1204832,22.6704202 C11.9480672,21.842584 12.604916,20.8621639 13.0907143,19.7284664 C13.5764496,18.5948319 13.8194118,17.4042857 13.8194118,16.1567647 L13.8194118,3.48913866 C13.8194118,2.52926471 13.4834874,1.71365546 12.8118277,1.0419958 C12.1401681,0.370336134 11.3243067,0.0344747899 10.3647479,0.0344747899 Z" id="Shape"></path>
                            <path d="M28.9341807,1.04205882 C28.262584,0.37039916 27.4468487,0.0344747899 26.4870378,0.0344747899 L19.577458,0.0344747899 C18.6176471,0.0344747899 17.8019748,0.37039916 17.1303151,1.04205882 C16.4587185,1.71390756 16.1229202,2.52951681 16.1229202,3.48939076 L16.1229202,10.3989706 C16.1229202,11.3587815 16.4587185,12.1743277 17.1303151,12.8459874 C17.8019748,13.517584 18.6177101,13.8536345 19.577458,13.8536345 L23.6081092,13.8536345 C24.0877941,13.8536345 24.4960714,14.0216597 24.8319328,14.357458 C25.167479,14.6932563 25.3357563,15.1011555 25.3357563,15.5812185 L25.3357563,16.1567017 C25.3357563,17.4283613 24.8858193,18.5136555 23.9860084,19.4135294 C23.0863866,20.3129622 22.0010924,20.7628361 20.7291807,20.7628361 L19.577458,20.7628361 C19.2656092,20.7628361 18.9955462,20.8771008 18.7677731,21.1048739 C18.5398109,21.3326471 18.4256723,21.6026471 18.4256723,21.9145588 L18.4256723,24.2180672 C18.4256723,24.5294748 18.5398109,24.799979 18.7677731,25.0278151 C18.9954832,25.2555252 19.2655462,25.3698529 19.577458,25.3698529 L20.7291807,25.3698529 C21.9767017,25.3698529 23.1672479,25.1265756 24.3010714,24.6409034 C25.4345168,24.1551681 26.415,23.4981933 27.2428361,22.6704202 C28.0706092,21.842584 28.7278361,20.8619118 29.2133193,19.7284664 C29.6989916,18.595084 29.9420798,17.4042857 29.9420798,16.1567647 L29.9420798,3.48913866 C29.9418908,2.52926471 29.6062815,1.71365546 28.9341807,1.04205882 Z" id="Shape"></path>
                        </g>
                    </g>
                </g>
            </g>
        </g>
    </g>
</svg>