<?xml version="1.0" encoding="UTF-8"?>
<svg width="185px" height="48px" viewBox="0 0 185 48" version="1.1" xmlns="http://www.w3.org/2000/svg" xmlns:xlink="http://www.w3.org/1999/xlink">
    <!-- Generator: Sketch 49.2 (51160) - http://www.bohemiancoding.com/sketch -->
    <title>Group 2</title>
    <desc>Created with Sketch.</desc>
    <defs>
        <linearGradient x1="64.3101024%" y1="32.1884323%" x2="37.5218974%" y2="100%" id="linearGradient-1">
            <stop stop-color="#008D36" offset="0%"></stop>
            <stop stop-color="#95C11F" offset="100%"></stop>
        </linearGradient>
        <linearGradient x1="40.6934618%" y1="0%" x2="50%" y2="100%" id="linearGradient-2">
            <stop stop-color="#FFDE00" offset="0%"></stop>
            <stop stop-color="#F46B23" offset="100%"></stop>
        </linearGradient>
        <linearGradient x1="6.98120772%" y1="22.5468467%" x2="88.4579219%" y2="85.0695263%" id="linearGradient-3">
            <stop stop-color="#7BC554" offset="0%"></stop>
            <stop stop-color="#2ED1F0" offset="58.9352691%"></stop>
            <stop stop-color="#4894AF" offset="100%"></stop>
        </linearGradient>
    </defs>
    <g id="Page-1" stroke="none" stroke-width="1" fill="none" fill-rule="evenodd">
        <g id="A4-Copy-3" transform="translate(-373.000000, -7008.000000)">
            <g id="Футер" transform="translate(373.000000, 7008.000000)">
                <g id="Group-2">
                    <g id="Logo_letters" transform="translate(102.000000, 13.000000)" fill="#434343">
                        <path d="M7.85473135,12.8993073 C9.19248928,12.8993073 10.2927168,12.4306954 11.1768577,11.5138462 C12.0626481,10.5969969 12.5154404,9.4242448 12.5154404,8.01759428 C12.5154404,6.61012878 12.0626481,5.4373767 11.1768577,4.52052743 C10.2927168,3.60367816 9.19248928,3.13506631 7.85473135,3.13506631 C6.51779819,3.13506631 5.39530218,3.60367816 4.51033655,4.52052743 C3.62537092,5.4373767 3.19402234,6.61012878 3.19402234,8.01759428 C3.19402234,9.4242448 3.62537092,10.5969969 4.51033655,11.5138462 C5.39530218,12.4306954 6.51779819,12.8993073 7.85473135,12.8993073 Z M2.24472556,2.51649867 C3.73341425,1.00308615 5.61056409,0.255752124 7.85473135,0.255752124 C10.0988986,0.255752124 11.9546047,1.00308615 13.4424687,2.51649867 C14.9319821,4.00872179 15.6874607,5.84242033 15.6874607,8.01759428 C15.6874607,10.1699489 14.9319821,12.0044624 13.4424687,13.5178749 C11.9546047,15.0321024 10.0988986,15.7786215 7.85473135,15.7786215 C5.61056409,15.7786215 3.73341425,15.0321024 2.24472556,13.5178749 C0.756036878,12.0044624 0.0220020131,10.1699489 0.0220020131,8.01759428 C0.0220020131,5.84242033 0.756036878,4.00872179 2.24472556,2.51649867 Z" id="Fill-1"></path>
                        <path d="M18.6120535,0.554848729 L28.4943072,0.554848729 C29.2629819,0.554848729 29.8864992,1.17015646 29.8864992,1.92971514 C29.8864992,2.68927382 29.2629819,3.30539653 28.4943072,3.30539653 L25.0963031,3.30539653 L25.0963031,14.1038435 C25.0963031,14.8642171 24.4727858,15.4795249 23.7049359,15.4795249 L23.3808059,15.4795249 C22.6121312,15.4795249 21.9894387,14.8642171 21.9894387,14.1038435 L21.9894387,3.30539653 L18.6120535,3.30539653 C17.8425541,3.30539653 17.2206863,2.68927382 17.2206863,1.92971514 C17.2206863,1.17015646 17.8425541,0.554848729 18.6120535,0.554848729" id="Fill-3"></path>
                        <path d="M62.6665168,13.9446784 L62.6665168,2.09002114 C62.6665168,1.24162995 63.361788,0.554604236 64.2195366,0.554604236 C65.0772852,0.554604236 65.7733812,1.24162995 65.7733812,2.09002114 L65.7733812,13.9446784 C65.7733812,14.7930696 65.0772852,15.4792804 64.2195366,15.4792804 C63.361788,15.4792804 62.6665168,14.7930696 62.6665168,13.9446784 L62.6665168,13.9446784 Z M52.2011591,12.7719263 L54.8337875,12.7719263 C56.6457814,12.7719263 57.72539,11.9194603 57.72539,10.4476116 C57.72539,8.93419905 56.6457814,8.08173298 54.8337875,8.08173298 L52.2011591,8.08173298 L52.2011591,12.7719263 Z M49.0934699,13.9446784 L49.0934699,2.09002114 C49.0934699,1.24244493 49.7895659,0.554604236 50.6473145,0.554604236 C51.5058878,0.554604236 52.2011591,1.24244493 52.2011591,2.09002114 L52.2011591,5.48032599 L55.0061619,5.48032599 C56.7967122,5.48032599 58.2210697,5.94893784 59.2784098,6.88697651 C60.3357499,7.80382578 60.8536981,9.01895668 60.8536981,10.4908054 C60.8536981,11.9618391 60.3357499,13.177785 59.2784098,14.0938192 C58.2210697,15.0106685 56.7967122,15.4792804 55.0061619,15.4792804 L50.6473145,15.4792804 C49.7895659,15.4792804 49.0934699,14.7922546 49.0934699,13.9446784 L49.0934699,13.9446784 Z" id="Fill-5"></path>
                        <path d="M73.4141068,1.16331065 L76.1523043,5.01081767 L78.9333892,1.15597586 C79.2055595,0.778641449 79.6459804,0.554522739 80.1144431,0.554522739 L80.1235154,0.554522739 C81.3045693,0.554522739 81.9899434,1.87478568 81.302095,2.82341906 L77.965123,7.42070503 L82.1804626,13.2094876 C82.8707852,14.157306 82.1854111,15.4791989 81.0027077,15.4791989 L80.9466242,15.4791989 C80.4822853,15.4791989 80.0468129,15.260785 79.7738179,14.8899704 L76.1094169,9.91453504 L72.4656348,14.8867105 C72.1926398,15.259155 71.7546932,15.4791989 71.2903543,15.4791989 C70.1060014,15.4791989 69.4206273,14.1532311 70.1150737,13.2062277 L74.3394856,7.44107946 L70.9959156,2.82178911 C70.3097167,1.87315573 70.9959156,0.554522739 72.1761447,0.554522739 L72.2281044,0.554522739 C72.6998662,0.554522739 73.1419366,0.781901357 73.4141068,1.16331065" id="Fill-7"></path>
                        <polygon id="Fill-10" points="0.0219195372 28.6838658 0.0219195372 24.3155884 1.27142832 24.3155884 1.27142832 25.9088686 2.79475686 24.3155884 4.32798249 24.3155884 2.40547095 26.2853881 4.62901926 28.6838658 3.01661683 28.6838658 1.27142832 26.8020836 1.27142832 28.6838658"></polygon>
                        <path d="M9.29484178,25.9349479 L9.29484178,27.072656 C9.49938183,27.4491754 9.90598766,27.7205628 10.3942446,27.7205628 C10.7398183,27.7205628 11.0317827,27.606466 11.2536427,27.3701226 C11.4755027,27.1345942 11.5901441,26.8452774 11.5901441,26.5038019 C11.5901441,26.1541768 11.4755027,25.8648599 11.2536427,25.6293315 C11.0317827,25.3921731 10.7398183,25.2780763 10.3942446,25.2780763 C9.90598766,25.2780763 9.49938183,25.5584285 9.29484178,25.9349479 M12.2359298,24.8665129 C12.6351128,25.3041556 12.8305805,25.8477454 12.8305805,26.5038019 C12.8305805,27.1517088 12.6351128,27.6952985 12.2359298,28.141906 C11.8466439,28.5787337 11.3509642,28.7979626 10.7488906,28.7979626 C10.1196001,28.7979626 9.64041549,28.5787337 9.29484178,28.1500557 L9.29484178,30.4352516 L8.04533299,30.4352516 L8.04533299,24.3155884 L9.29484178,24.3155884 L9.29484178,24.8485834 C9.62227081,24.4207204 10.1105277,24.2014916 10.7488906,24.2014916 C11.3509642,24.2014916 11.8466439,24.4207204 12.2359298,24.8665129" id="Fill-12"></path>
                        <path d="M15.9983946,30.3122716 L15.9983946,29.2356868 C16.2021099,29.3489686 16.4322174,29.4109069 16.6713973,29.4109069 C17.1233649,29.4109069 17.3980094,29.1395195 17.6545092,28.5356214 L15.7501423,24.3156699 L17.0969726,24.3156699 L18.2664798,27.1876493 L19.3741302,24.3156699 L20.6937434,24.3156699 L18.6475181,29.1395195 C18.2574075,30.0408842 17.6726539,30.4874916 16.884185,30.4874916 C16.5204666,30.4874916 16.2202545,30.4263684 15.9983946,30.3122716" id="Fill-14"></path>
                        <polygon id="Fill-16" points="24.1550065 28.6838658 24.1550065 24.3155884 27.6635282 24.3155884 27.6635282 25.3489794 25.4045153 25.3489794 25.4045153 28.6838658"></polygon>
                        <path d="M32.5145089,25.3488164 L32.497189,25.9616792 C32.469972,26.5655772 32.4435797,26.9681759 32.292649,27.4930212 C32.0806861,28.2289455 31.6551108,28.6926675 30.7783928,28.7187468 C30.5656051,28.7187468 30.405602,28.6926675 30.3082805,28.640509 L30.3082805,27.6331972 C30.3792098,27.6592765 30.4682836,27.6682413 30.5656051,27.6682413 C30.8575696,27.6682413 31.0439649,27.5019859 31.1412864,27.108352 C31.2476802,26.6959736 31.2740725,26.3292338 31.2831448,25.6022742 L31.3095371,24.3154254 L35.1281679,24.3154254 L35.1281679,28.6837028 L33.8786591,28.6837028 L33.8786591,25.3488164 L32.5145089,25.3488164 Z" id="Fill-18"></path>
                        <path d="M43.5769917,28.6834583 L44.8083558,28.6834583 L44.8083558,24.3151809 L43.5769917,24.3151809 L43.5769917,28.6834583 Z M40.3158975,27.729935 L41.0251896,27.729935 C41.511797,27.729935 41.7955138,27.5107062 41.7955138,27.125222 C41.7955138,26.7405528 41.511797,26.5123592 41.0251896,26.5123592 L40.3158975,26.5123592 L40.3158975,27.729935 Z M39.0663887,28.6842732 L39.0663887,24.3151809 L40.3158975,24.3151809 L40.3158975,25.593065 L41.2198325,25.593065 C42.3274829,25.593065 43.0450226,26.1969631 43.0450226,27.1350017 C43.0450226,27.5816092 42.8949166,27.9483489 42.5839827,28.2458156 C42.2746984,28.5351324 41.8400507,28.6842732 41.2816894,28.6842732 L39.0663887,28.6842732 Z" id="Fill-20"></path>
                        <path d="M49.3422994,22.3364164 L50.2816991,22.3364164 C50.2816991,22.7219006 50.5390237,22.9761735 50.9382067,22.9761735 C51.336565,22.9761735 51.5839924,22.7219006 51.5930648,22.3364164 L52.540712,22.3364164 C52.5316397,22.8009534 52.3815337,23.1603583 52.0796722,23.4309307 C51.7786354,23.7023181 51.3975971,23.8343444 50.9456295,23.8343444 C50.0153022,23.8343444 49.3521965,23.2557106 49.3422994,22.3364164 L49.3422994,22.3364164 Z M48.7484735,28.6842732 L48.7484735,24.3151809 L49.9806624,24.3151809 L49.9806624,26.8888786 L51.9823507,24.3151809 L53.1526827,24.3151809 L53.1526827,28.6842732 L51.9204938,28.6842732 L51.9204938,26.1097605 L49.9188055,28.6842732 L48.7484735,28.6842732 Z" id="Fill-22"></path>
                        <polygon id="Fill-23" points="62.0736806 28.6838658 62.0736806 24.3155884 65.5822023 24.3155884 65.5822023 25.3489794 63.3231893 25.3489794 63.3231893 28.6838658"></polygon>
                        <path d="M71.1774449,27.7204813 C71.5329157,27.7204813 71.8248801,27.6063845 72.0549877,27.3700411 C72.28592,27.1345127 72.4005614,26.8451959 72.4005614,26.4955707 C72.4005614,26.1443155 72.28592,25.8558136 72.0549877,25.62925 C71.8248801,25.3920916 71.5329157,25.2779948 71.1774449,25.2779948 C70.8227988,25.2779948 70.5308344,25.3920916 70.3015516,25.62925 C70.0706193,25.8558136 69.9559779,26.1443155 69.9559779,26.4955707 C69.9559779,26.8451959 70.0706193,27.1345127 70.3015516,27.3700411 C70.5308344,27.6063845 70.8227988,27.7204813 71.1774449,27.7204813 M69.4141117,24.8672464 C69.8751516,24.4206389 70.4607299,24.2014101 71.1774449,24.2014101 C71.8949846,24.2014101 72.4797382,24.4206389 72.9416028,24.8672464 C73.4018179,25.3130389 73.6327503,25.8558136 73.6327503,26.4955707 C73.6327503,27.1516273 73.4018179,27.695217 72.9416028,28.1418245 C72.4797382,28.5786522 71.8949846,28.7978811 71.1774449,28.7978811 C70.4607299,28.7978811 69.8751516,28.5786522 69.4141117,28.1418245 C68.9538966,27.695217 68.7229643,27.1516273 68.7229643,26.4955707 C68.7229643,25.8476639 68.9538966,25.3040741 69.4141117,24.8672464" id="Fill-24"></path>
                        <path d="M80.3440558,27.6504748 L80.3440558,25.3489794 L78.9617609,25.3489794 C78.9617609,26.2584938 78.8289748,27.0294622 78.5716502,27.6504748 L80.3440558,27.6504748 Z M76.7291403,29.7954946 L76.7291403,27.6504748 L77.296574,27.6504748 C77.6330753,27.1345942 77.8103984,26.3106524 77.8277183,25.1647945 L77.845863,24.3155884 L81.5663475,24.3155884 L81.5663475,27.6504748 L82.2929596,27.6504748 L82.2929596,29.7954946 L81.1152048,29.7954946 L81.1152048,28.6838658 L77.9250398,28.6838658 L77.9250398,29.7954946 L76.7291403,29.7954946 Z" id="Fill-25"></path>
                        <path d="M40.7862571,3.30539653 L40.7862571,12.8047699 L34.7226343,12.8047699 C34.7308818,5.05433745 37.3230971,3.30539653 40.7862571,3.30539653 M43.8931215,12.8235144 L43.8931215,7.05673625 L43.8931215,2.12612463 C43.8931215,1.25817399 43.1805304,0.554848729 42.3021628,0.554848729 L40.2650099,0.554848729 C31.7287617,0.554848729 31.5456654,10.0786714 31.6240174,12.8202545 C30.9485404,12.8976773 30.4190456,13.4616415 30.4190456,14.1478522 C30.4190456,14.8870365 31.0301915,15.4917495 31.7782472,15.4917495 L35.1374877,15.4917495 L42.3021628,15.4917495 L43.7067262,15.4917495 C44.4539571,15.4917495 45.065103,14.8870365 45.065103,14.1478522 C45.065103,13.4722362 44.5521034,12.9147918 43.8931215,12.8235144" id="Fill-26"></path>
                    </g>
                    <g>
                        <path d="M0,28.8318341 L0,28.9869586 C0.0365673005,36.6726715 5.59812127,43.4516942 13.4509491,44.7789625 C22.2412294,46.2638439 30.5735875,40.3550114 32.0620429,31.5809385 C33.5504982,22.8068656 27.6307509,14.4890412 18.8404705,13.0041598 C17.9279501,12.8498649 17.0220784,12.7752061 16.1261795,12.7752061 C8.39468869,12.7760356 1.56242102,18.3381192 0.228545628,26.2013543 C0.078952126,27.0848172 0.00415537506,27.9641325 0,28.8318341 Z" id="Fill-28" fill="url(#linearGradient-1)"></path>
                        <path d="M62.4062537,0.829791538 C49.734853,0.881223184 39.4835427,11.2289385 39.4744009,24.0312706 C39.4660901,36.8991366 49.8030011,47.373772 62.5641579,47.4285218 L62.7561362,47.4285218 C75.4275369,47.3770901 85.6780161,37.0302044 85.6863269,24.2270427 C85.6954687,11.3591767 75.3585577,0.883711812 62.5965698,0.829791538 L62.4062537,0.829791538 Z" id="Fill-30" fill="url(#linearGradient-2)"></path>
                        <path d="M68.6343298,29.78249 C58.1295416,29.78249 28.7709858,14.3405531 18.0692329,12.9129101 C9.56899768,11.8884249 1.672954,17.6844396 0.228545628,26.2013543 C-0.258464328,29.0798674 -5.28604938e-14,34.3242361 3.00682939,38.2048368 C6.19566421,33.2308989 12.2783022,31.1213719 18.4789529,32.1690843 C23.067318,32.9447067 43.9996043,42.8403213 45.4573099,43.4583305 C50.5567861,45.6184597 56.1108604,47.4144196 63.2165518,47.4144196 C75.6801837,47.4144196 85.6780161,36.8742503 85.6863269,24.2270427 C85.6913133,19.0515259 84.0183593,14.2650647 81.18938,10.3861232 C82.1484405,12.2832873 82.6994433,14.4201892 82.6994433,16.689818 C82.6994433,24.4443829 76.4023879,29.78249 68.6343298,29.78249 Z" id="Fill-32" fill="url(#linearGradient-3)"></path>
                    </g>
                </g>
            </g>
        </g>
    </g>
</svg>