<?xml version="1.0" encoding="UTF-8"?>
<svg width="494px" height="268px" viewBox="0 0 494 268" version="1.1" xmlns="http://www.w3.org/2000/svg" xmlns:xlink="http://www.w3.org/1999/xlink">
    <!-- Generator: Sketch 49.2 (51160) - http://www.bohemiancoding.com/sketch -->
    <title>Group 2</title>
    <desc>Created with Sketch.</desc>
    <defs>
        <linearGradient x1="64.3101024%" y1="32.1884323%" x2="37.5218974%" y2="100%" id="linearGradient-1">
            <stop stop-color="#008D36" offset="0%"></stop>
            <stop stop-color="#95C11F" offset="100%"></stop>
        </linearGradient>
        <linearGradient x1="40.6934618%" y1="0%" x2="50%" y2="100%" id="linearGradient-2">
            <stop stop-color="#FFDE00" offset="0%"></stop>
            <stop stop-color="#F46B23" offset="100%"></stop>
        </linearGradient>
        <linearGradient x1="7.72260756%" y1="23.1157737%" x2="88.4579219%" y2="85.0695263%" id="linearGradient-3">
            <stop stop-color="#7BC554" offset="0%"></stop>
            <stop stop-color="#2ED1F0" offset="58.9352691%"></stop>
            <stop stop-color="#4894AF" offset="100%"></stop>
        </linearGradient>
    </defs>
    <g id="Page-1" stroke="none" stroke-width="1" fill="none" fill-rule="evenodd">
        <g id="A4" transform="translate(-33.000000, -1737.000000)">
            <g id="Преимущества" transform="translate(0.000000, 1737.000000)">
                <g id="Group-2" transform="translate(33.000000, 0.000000)">
                    <path d="M0,161.158586 L0,162.048938 C0.210630923,206.161839 32.2456794,245.070703 77.4786701,252.688689 C128.111472,261.211311 176.1066,227.296989 184.680236,176.93734 C193.253872,126.577691 159.155597,78.8367245 108.522796,70.3141026 C103.266597,69.4285117 98.0486945,69 92.8882369,69 C48.354158,69.0047612 8.99968488,100.928884 1.31644327,146.06069 C0.45477131,151.131412 0.0239353321,156.178328 0,161.158586 Z" id="Fill-28" fill="url(#linearGradient-1)"></path>
                    <path d="M358.694032,0 C285.482127,0.295795208 226.252845,59.8078827 226.200026,133.437035 C226.152009,207.443088 285.875868,267.685121 359.60636,268 L360.715559,268 C433.927465,267.704205 493.151945,208.196888 493.199962,134.562965 C493.252781,60.5569125 433.528921,0.310107879 359.793628,0 L358.694032,0 Z" id="Fill-30" fill="url(#linearGradient-2)"></path>
                    <path d="M394.851269,166.574837 C334.387327,166.574837 165.404004,77.7472948 103.806364,69.5349822 C54.8803196,63.641777 9.43190905,96.9825257 1.11811707,145.974864 C-1.68503718,162.5331 -0.19735634,192.700585 17.1094902,215.023187 C35.463932,186.411318 70.474659,174.276564 106.164649,180.303381 C132.574571,184.765038 253.057585,241.688151 261.447914,245.243162 C290.799713,257.668997 322.768109,268 363.667373,268 C435.406118,268 492.952101,207.369178 492.999936,134.617918 C493.028637,104.846495 483.399372,77.3130587 467.116203,55 C472.636408,65.9131662 475.807894,78.2053901 475.807894,91.2611063 C475.807894,135.868136 439.563014,166.574837 394.851269,166.574837 Z" id="Fill-32" fill="url(#linearGradient-3)"></path>
                </g>
            </g>
        </g>
    </g>
</svg>