<?xml version="1.0" encoding="UTF-8"?>
<svg width="135px" height="113px" viewBox="0 0 135 113" version="1.1" xmlns="http://www.w3.org/2000/svg" xmlns:xlink="http://www.w3.org/1999/xlink">
    <!-- Generator: Sketch 49.2 (51160) - http://www.bohemiancoding.com/sketch -->
    <title>correct-symbol</title>
    <desc>Created with Sketch.</desc>
    <defs>
        <linearGradient x1="50%" y1="0%" x2="50%" y2="100%" id="linearGradient-1">
            <stop stop-color="#B2E48D" offset="0%"></stop>
            <stop stop-color="#7BC554" offset="100%"></stop>
        </linearGradient>
        <path d="M95.2477726,10.3531921 L86.7369589,1.7674348 C85.569977,0.589292348 84.1507043,0 82.4824287,0 C80.8126188,0 79.3933461,0.589292348 78.2263642,1.7674348 L37.1728884,43.2449923 L18.7740732,24.6209218 C17.6057761,23.4423371 16.1873802,22.8537081 14.5191046,22.8537081 C12.8497331,22.8537081 11.4313372,23.4423371 10.2630402,24.6209218 L1.75222637,33.2069002 C0.583929328,34.3852638 0,35.8165919 0,37.5004422 C0,39.1829659 0.583929328,40.6156207 1.75222637,41.7937632 L24.4060102,64.6465867 L32.9174815,73.2323441 C34.085121,74.411371 35.5039553,75 37.1728884,75 C38.841164,75 40.2599983,74.4098232 41.4282953,73.2323441 L49.9395475,64.6465867 L95.2477726,18.9396128 C96.4149737,17.7610281 96.999999,16.3299212 96.999999,14.6460708 C97.0008758,12.9631049 96.4149737,11.5317768 95.2477726,10.3531921 Z" id="path-2"></path>
        <filter x="-36.1%" y="-33.3%" width="172.2%" height="193.3%" filterUnits="objectBoundingBox" id="filter-3">
            <feOffset dx="0" dy="10" in="SourceAlpha" result="shadowOffsetOuter1"></feOffset>
            <feGaussianBlur stdDeviation="10" in="shadowOffsetOuter1" result="shadowBlurOuter1"></feGaussianBlur>
            <feColorMatrix values="0 0 0 0 0.482352941   0 0 0 0 0.77254902   0 0 0 0 0.329411765  0 0 0 0.4 0" type="matrix" in="shadowBlurOuter1"></feColorMatrix>
        </filter>
    </defs>
    <g id="Page-1" stroke="none" stroke-width="1" fill="none" fill-rule="evenodd">
        <g id="A4-Copy-3" transform="translate(-545.000000, -2643.000000)" fill-rule="nonzero">
            <g id="Преимущества" transform="translate(-107.000000, 2059.000000)">
                <g id="Group-3" transform="translate(107.000000, 445.000000)">
                    <g id="Железная-цена" transform="translate(442.000000, 96.000000)">
                        <g id="correct-symbol" transform="translate(122.000000, 52.000000)">
                            <g id="Shape">
                                <use fill="black" fill-opacity="1" filter="url(#filter-3)" xlink:href="#path-2"></use>
                                <use fill="url(#linearGradient-1)" fill-rule="evenodd" xlink:href="#path-2"></use>
                            </g>
                        </g>
                    </g>
                </g>
            </g>
        </g>
    </g>
</svg>