<?xml version="1.0" encoding="UTF-8"?>
<svg width="178px" height="97px" viewBox="0 0 178 97" version="1.1" xmlns="http://www.w3.org/2000/svg" xmlns:xlink="http://www.w3.org/1999/xlink">
    <!-- Generator: Sketch 50.2 (55047) - http://www.bohemiancoding.com/sketch -->
    <title>preloader</title>
    <desc>Created with Sketch.</desc>
    <defs>
        <linearGradient x1="64.3101024%" y1="32.1884323%" x2="37.5218974%" y2="100%" id="linearGradient-1">
            <stop stop-color="#008D36" offset="0%"></stop>
            <stop stop-color="#95C11F" offset="100%"></stop>
        </linearGradient>
        <linearGradient x1="40.6934618%" y1="0%" x2="50%" y2="100%" id="linearGradient-2">
            <stop stop-color="#FFDE00" offset="0%"></stop>
            <stop stop-color="#F46B23" offset="100%"></stop>
        </linearGradient>
        <linearGradient x1="6.98120772%" y1="22.5468467%" x2="88.4579219%" y2="85.0695263%" id="linearGradient-3">
            <stop stop-color="#7BC554" offset="0%"></stop>
            <stop stop-color="#2ED1F0" offset="58.9352691%"></stop>
            <stop stop-color="#4894AF" offset="100%"></stop>
        </linearGradient>
        <path d="M0.000587934924,58.2815628 C-0.0108840583,56.2504331 0.146308769,54.4099309 0.403701499,52.8876269 C2.7525532,39.0289219 13.3109439,28.6346828 26.2565228,25.7895004 C28.5910184,25.2715393 31.0035093,25.000264 33.4597413,25 C35.3186158,25 37.1981828,25.1551907 39.0915447,25.4759182 C40.2837442,25.6776765 41.450495,25.9401228 42.5891676,26.2595549 C52.6568612,28.7338406 67.3020195,34.6236699 82.5722035,40.8233148 C86.1277689,17.7323717 105.826022,0.0968472772 129.638305,0 L130.033665,0 C156.54439,0.112236978 178.017616,21.9166034 177.999989,48.7012105 C178.000007,48.7281566 178.000003,48.7551079 177.999977,48.7820642 C177.982706,75.0818155 157.205454,97 131.303839,97 C131.093793,97 130.884399,96.9992444 130.675651,96.9977417 C130.572225,96.9988257 130.468724,96.9995787 130.365146,97 L129.966333,97 C128.896277,96.9953998 127.834426,96.9554601 126.781863,96.8812799 C114.137311,96.2119747 103.888274,92.7963743 94.3970156,88.7733495 C92.643685,88.0295365 77.333034,80.8229879 62.8970093,74.5711321 C56.2354957,86.756919 42.3709281,93.9725165 27.9089833,91.5250927 C18.6409267,89.9557609 10.9110641,84.7198265 5.95422523,77.5560472 C3.27332633,73.9868669 1.68174452,69.8899935 0.828180415,65.9200028 C0.295958682,63.5808387 0.011699147,61.1622272 6.78488299e-14,58.6988047 L6.78488299e-14,58.3763529 C0.000151003407,58.3447636 0.000346966275,58.3131668 0.000587934924,58.2815628 Z" id="path-4"></path>
        <linearGradient x1="92.0%" y1="50%" x2="8%" y2="50%" id="linearGradient-6">
            <stop stop-color="#FFFFFF" stop-opacity="0" offset="0%"></stop>
            <stop stop-color="#FFFFFF" offset="50%"></stop>
            <stop stop-color="#FFFFFF" stop-opacity="0" offset="100%"></stop>
        </linearGradient>
    </defs>
    <g id="Page-1" stroke="none" stroke-width="1" fill="none" fill-rule="evenodd">
        <g id="A4-Copy-4" transform="translate(-103.000000, -7826.000000)">
            <g id="preloader" transform="translate(103.000000, 7826.000000)">
                <path d="M0,58.3763529 L0,58.6988047 C0.0758724292,74.6748282 11.6153792,88.7661464 27.9089833,91.5250927 C46.1476807,94.6116639 63.4362483,82.3291798 66.524601,64.0908204 C69.6129538,45.852461 57.3302421,28.5624894 39.0915447,25.4759182 C37.1981828,25.1551907 35.3186158,25 33.4597413,25 C17.4178956,25.0017243 3.24182197,36.5634337 0.474202682,52.9084662 C0.163815472,54.7448898 0.00862186695,56.5726917 0,58.3763529 Z" id="Fill-28" fill="url(#linearGradient-1)" fill-rule="nonzero"></path>
                <path d="M129.638305,0 C103.314923,0.107060206 82.0190015,21.6468829 82.0000104,48.2962403 C81.9827458,75.082013 103.456493,96.8860327 129.966333,97 L130.365146,97 C156.688528,96.8929398 177.982723,75.3548439 177.999987,48.7037597 C178.018979,21.917987 156.545231,0.112240538 130.033665,0 L129.638305,0 Z" id="Fill-30" fill="url(#linearGradient-2)" fill-rule="nonzero"></path>
                <path d="M142.562933,60.3345655 C120.732138,60.3345655 59.7199041,28.2232005 37.4797824,25.2544302 C19.814801,23.1240227 3.40543572,35.1767816 0.403701499,52.8876269 C-0.608390707,58.8734682 -0.0712564474,69.7790846 6.17746301,77.8487578 C12.8044217,67.5054999 25.4452116,63.118758 38.3312524,65.2974662 C47.8666809,66.9103658 91.3676474,87.4882049 94.3970156,88.7733495 C104.994623,93.265318 116.536964,97 131.303839,97 C157.205454,97 177.982706,75.0818155 177.999977,48.7820642 C178.01034,38.019625 174.533647,28.0662231 168.654532,20 C170.647628,23.9451352 171.792708,28.388803 171.792708,33.108475 C171.792708,49.2340211 158.706322,60.3345655 142.562933,60.3345655 Z" id="Fill-32" fill="url(#linearGradient-3)" fill-rule="nonzero"></path>
                <g id="Group-6">
                    <g id="reaasda-Clipped">
                        <mask id="mask-5" fill="white">
                            <use xlink:href="#path-4"></use>
                        </mask>
                        <g id="path-4"></g>
                        <rect id="reaasda" fill-opacity="0.55" fill="url(#linearGradient-6)" fill-rule="nonzero" mask="url(#mask-5)" x="-23" y="-11" width="250" height="155" rx="1"></rect>
                        <animate 
                            xlink:href="#reaasda"
                            attributeName="x"
                            from="-250"
                            to="250" 
                            dur="1.5s"
                            begin="0s"
                            repeatCount="indefinite"
                            id="circ-anim"/>
                    </g>
                </g>
            </g>
        </g>
    </g>
</svg>