<?xml version="1.0" encoding="UTF-8"?>
<svg width="30px" height="26px" viewBox="0 0 30 26" version="1.1" xmlns="http://www.w3.org/2000/svg" xmlns:xlink="http://www.w3.org/1999/xlink">
    <!-- Generator: Sketch 49.2 (51160) - http://www.bohemiancoding.com/sketch -->
    <title>left-arrow</title>
    <desc>Created with Sketch.</desc>
    <defs></defs>
    <g id="Page-1" stroke="none" stroke-width="1" fill="none" fill-rule="evenodd">
        <g id="A4" transform="translate(-532.000000, -3626.000000)" fill="#373737" fill-rule="nonzero">
            <g id="Отзывы" transform="translate(0.000000, 3176.000000)">
                <g id="Стрелка-влево" transform="translate(512.000000, 428.000000)">
                    <g id="left-arrow" transform="translate(20.000000, 22.000000)">
                        <path d="M11.3419316,0.634615347 L0.627639859,11.4679839 C-0.209213286,12.31407 -0.209213286,13.6859807 0.627639859,14.5320668 L11.3419316,25.3654354 C12.1787847,26.2115215 13.5355488,26.2115215 14.372402,25.3654354 C15.2093891,24.5193493 15.2093891,23.1474386 14.372402,22.3013525 L7.31603645,15.1666991 L27.8571417,15.1666991 C29.0406021,15.1666991 30,14.1967064 30,13.0000254 C30,11.8034121 29.0406021,10.8333517 27.8571417,10.8333517 L7.31603645,10.8333517 L14.3722681,3.69869824 C14.7907281,3.27565519 14.9999916,2.72112214 14.9999916,2.16665679 C14.9999916,1.61219145 14.7907951,1.05765839 14.372402,0.634615347 C13.5354149,-0.211538449 12.1787847,-0.211538449 11.3419316,0.634615347 Z" id="Shape"></path>
                    </g>
                </g>
            </g>
        </g>
    </g>
</svg>