<?xml version="1.0" encoding="UTF-8"?>
<svg width="30px" height="26px" viewBox="0 0 30 26" version="1.1" xmlns="http://www.w3.org/2000/svg" xmlns:xlink="http://www.w3.org/1999/xlink">
    <!-- Generator: Sketch 49.2 (51160) - http://www.bohemiancoding.com/sketch -->
    <title>left-arrow</title>
    <desc>Created with Sketch.</desc>
    <defs></defs>
    <g id="Page-1" stroke="none" stroke-width="1" fill="none" fill-rule="evenodd">
        <g id="A4-Copy-3" transform="translate(-1358.000000, -4041.000000)" fill="#373737" fill-rule="nonzero">
            <g id="Отзывы" transform="translate(0.000000, 3576.000000)">
                <g id="Стрелка-вправо" transform="translate(1338.000000, 443.000000)">
                    <g id="left-arrow" transform="translate(20.000000, 22.000000)">
                        <path d="M11.341942,0.62765625 L0.62765625,11.341942 C-0.209196429,12.1787277 -0.209196429,13.535558 0.62765625,14.3723438 L11.341942,25.0866295 C12.1787946,25.9234152 13.535558,25.9234152 14.3724107,25.0866295 C15.2093973,24.2498437 15.2093973,22.8930134 14.3724107,22.0562277 L7.31604911,15 L27.8571429,15 C29.0406027,15 30,14.0406696 30,12.8571429 C30,11.673683 29.0406027,10.7142857 27.8571429,10.7142857 L7.31604911,10.7142857 L14.3722768,3.65805804 C14.7907366,3.23966518 15,2.69122768 15,2.14285714 C15,1.59448661 14.7908036,1.04604911 14.3724107,0.62765625 C13.5354241,-0.209196429 12.1787946,-0.209196429 11.341942,0.62765625 Z" id="Shape" transform="translate(15.000008, 12.857118) scale(-1, 1) translate(-15.000008, -12.857118) "></path>
                    </g>
                </g>
            </g>
        </g>
    </g>
</svg>